<svg width="1302" height="408" viewBox="0 0 1302 408" fill="none" xmlns="http://www.w3.org/2000/svg">
<path d="M1302 0H0V408H1302V0Z" fill="#018541"/>
<path d="M259.5 351C342.067 351 409 284.067 409 201.5C409 118.933 342.067 52 259.5 52C176.933 52 110 118.933 110 201.5C110 284.067 176.933 351 259.5 351Z" fill="black"/>
<path d="M670.472 146.5V110.167H691.543C701.215 110.167 709.16 118.387 709.16 128.393C709.16 138.4 701.215 146.381 691.543 146.381H670.472V146.5ZM605.415 181.404C598.276 188.79 588.604 193.197 577.895 193.197C556.594 193.197 539.092 175.209 539.092 153.052C539.092 131.014 556.479 112.907 577.895 112.907C588.604 112.907 598.391 117.315 605.415 124.7L631.668 97.5398V208.445L605.415 181.404ZM631.668 231.079H670.472V181.404H681.871L709.851 231.079H754.642L720.675 173.899C736.795 165.203 747.964 147.811 747.964 127.559C747.964 98.6119 725.165 75.2634 697.415 75.2634H631.783V95.5147C617.62 81.6961 598.852 73 578.011 73C535.407 73 500.518 108.618 500.518 153.171C500.518 197.724 535.407 233.343 578.011 233.343C598.852 233.343 617.62 224.646 631.783 210.828V231.079H631.668Z" fill="white"/>
<path d="M1172.5 146.527V117.699C1173.54 106.978 1182.29 101.617 1191.15 102.808V97.3284C1183.33 96.1371 1176.07 100.187 1172.5 107.335L1172.39 97.6858H1167.32V146.527H1172.5Z" fill="white"/>
<path d="M1120.8 118.532C1122.18 108.645 1129.32 102.093 1137.96 102.093C1146.59 102.093 1153.73 108.645 1154.42 118.532H1120.8ZM1159.72 119.962C1159.72 106.382 1150.05 97.209 1138.07 97.209C1125.75 97.209 1115.51 107.216 1115.51 121.868C1115.51 136.282 1126.33 147.003 1138.99 147.003C1146.59 147.003 1153.04 143.787 1157.53 137.712L1153.85 134.614C1150.39 139.498 1145.21 142 1138.88 142C1129.21 142 1121.26 134.138 1120.57 123.417H1159.61V119.962H1159.72Z" fill="white"/>
<path d="M1042.62 121.629C1042.85 108.764 1049.07 101.973 1057.82 101.973C1065.19 101.973 1070.14 106.858 1070.02 115.554V146.407H1075.09V121.629C1075.32 108.764 1081.54 101.973 1090.29 101.973C1097.66 101.973 1102.61 106.858 1102.49 115.554V146.407H1107.56V115.435C1107.68 103.999 1101.46 97.0894 1090.86 97.0894C1083.26 97.0894 1076.93 101.735 1074.17 108.645C1072.1 101.378 1066.45 97.0894 1058.39 97.0894C1051.37 97.0894 1045.27 101.259 1042.62 107.334V97.5659H1037.55V146.407H1042.62V121.629Z" fill="white"/>
<path d="M1022.81 146.527H1027.88V97.6853H1022.81V122.463C1022.58 135.329 1015.79 142.119 1006.23 142.119C998.634 142.119 993.683 137.235 993.683 128.539V97.6853H988.616V128.658C988.616 140.094 994.949 147.003 1005.66 147.003C1013.37 147.003 1020.05 142.596 1022.81 136.282V146.527Z" fill="white"/>
<path d="M949.928 136.162L947.05 140.332C951.425 144.382 957.297 147.003 964.782 147.003C973.648 147.003 980.672 142 980.672 133.303C980.672 126.394 977.448 123.416 966.97 119.723L962.94 118.294C957.067 116.269 953.843 114.243 953.843 109.717C953.843 104.118 958.909 101.974 963.515 101.974C967.891 101.974 972.612 104.356 976.066 107.572L979.06 103.165C974.684 99.4719 969.848 97.3276 963.4 97.3276C955.34 97.3276 948.777 101.854 948.777 110.074C948.777 116.388 952.461 120.319 961.327 123.654L965.818 125.322C972.496 127.705 975.49 129.134 975.49 133.423C975.49 139.736 970.194 142.476 964.552 142.476C958.909 142.357 953.728 139.736 949.928 136.162Z" fill="white"/>
<path d="M905.596 121.629C905.826 108.764 912.62 101.973 922.177 101.973C929.776 101.973 934.728 106.858 934.728 115.554V146.407H939.794V115.435C939.794 103.999 933.461 97.0894 922.753 97.0894C915.038 97.0894 908.36 101.497 905.596 107.811V97.5659H900.53V146.407H905.596V121.629Z" fill="white"/>
<path d="M868.636 141.762C858.273 141.762 849.752 132.947 849.752 122.106C849.752 111.385 858.158 102.45 868.636 102.45C879.114 102.45 887.635 111.266 887.635 122.106C887.635 132.827 879.114 141.762 868.636 141.762ZM868.636 97.209C855.394 97.209 844.686 108.407 844.686 122.106C844.686 135.806 855.394 147.003 868.636 147.003C881.877 147.003 892.701 135.806 892.701 122.106C892.701 108.407 881.877 97.209 868.636 97.209Z" fill="white"/>
<path d="M834.898 129.491C829.486 136.757 821.08 141.165 811.638 141.165C795.518 141.165 782.277 127.585 782.277 110.788C782.277 94.1105 795.518 80.5303 811.638 80.5303C821.195 80.5303 829.486 85.057 834.898 92.3237L839.043 88.1543C832.595 80.0538 822.577 74.6931 811.638 74.6931C792.409 74.6931 776.635 91.0133 776.635 110.788C776.635 130.682 792.409 147.002 811.638 147.002C822.692 147.002 832.48 141.761 838.813 133.422L834.898 129.491Z" fill="white"/>
<path d="M1053.79 220.741L1050.91 224.91C1055.28 228.96 1061.16 231.581 1068.64 231.581C1077.51 231.581 1084.53 226.578 1084.53 217.882C1084.53 210.973 1081.31 207.994 1070.83 204.302L1066.8 202.872C1060.93 200.847 1057.7 198.822 1057.7 194.295C1057.7 188.696 1062.77 186.552 1067.37 186.552C1071.75 186.552 1076.47 188.934 1079.93 192.151L1082.92 187.743C1078.54 184.05 1073.71 181.906 1067.26 181.906C1059.2 181.906 1052.64 186.433 1052.64 194.652C1052.64 200.966 1056.32 204.897 1065.19 208.233L1069.68 209.9C1076.36 212.283 1079.35 213.712 1079.35 218.001C1079.35 224.315 1074.05 227.054 1068.41 227.054C1062.77 226.935 1057.59 224.434 1053.79 220.741Z" fill="white"/>
<path d="M1044.81 228.365L1043.42 224.076C1040.66 225.863 1037.9 226.578 1034.67 226.578C1030.07 226.578 1027.88 223.719 1027.88 218.597V187.148H1044.46V182.144H1028V165.348H1022.81V218.597C1022.81 226.578 1026.61 231.462 1034.56 231.462C1038.24 231.581 1041.7 230.509 1044.81 228.365Z" fill="white"/>
<path d="M996.791 231.104V202.276C997.828 191.555 1006.58 186.194 1015.44 187.385V181.906C1007.61 180.714 1000.36 184.765 996.791 191.912L996.676 182.263H991.61V231.104H996.791Z" fill="white"/>
<path d="M959.829 226.341C949.466 226.341 940.946 217.526 940.946 206.686C940.946 195.964 949.351 187.03 959.829 187.03C970.308 187.03 978.828 195.845 978.828 206.686C978.828 217.526 970.308 226.341 959.829 226.341ZM959.829 181.788C946.588 181.788 935.879 192.986 935.879 206.686C935.879 220.385 946.588 231.583 959.829 231.583C973.071 231.583 983.895 220.385 983.895 206.686C983.895 192.986 973.071 181.788 959.829 181.788Z" fill="white"/>
<path d="M905.367 226.341C895.004 226.341 886.713 217.526 886.713 206.686C886.713 195.964 895.119 187.03 905.367 187.03C915.73 187.03 924.02 195.845 924.02 206.686C924.02 217.526 915.73 226.341 905.367 226.341ZM905.367 181.788C897.537 181.788 890.628 186.315 886.713 193.105V182.384H881.647V251H886.713V220.266C890.743 227.175 897.767 231.702 905.712 231.702C918.608 231.702 929.202 220.504 929.202 206.805C929.202 193.105 918.493 181.788 905.367 181.788Z" fill="white"/>
<path d="M834.898 203.112C836.28 193.224 843.419 186.672 852.054 186.672C860.69 186.672 867.829 193.224 868.52 203.112H834.898ZM873.817 204.541C873.817 190.961 864.145 181.788 852.17 181.788C839.849 181.788 829.601 191.795 829.601 206.447C829.601 220.861 840.425 231.583 853.091 231.583C860.69 231.583 867.138 228.366 871.629 222.291L867.944 219.194C864.49 224.078 859.309 226.579 852.976 226.579C843.304 226.579 835.359 218.717 834.668 207.996H873.702V204.541H873.817Z" fill="white"/>
<path d="M786.652 196.558V165.228H804.154C814.978 165.228 821.195 171.542 821.195 180.834C821.195 189.173 815.669 196.439 803.924 196.439H786.652V196.558ZM808.414 201.562C820.044 199.775 826.838 191.079 826.838 180.953C826.838 168.802 818.893 159.987 804.384 159.987H781.355V231.105H786.767V201.8H802.081L821.541 231.105H828.104L808.414 201.562Z" fill="white"/>
<path d="M502.782 312.3V298.535H514.561C517.027 298.535 518.876 299.083 520.109 300.179C521.341 301.229 521.958 302.941 521.958 305.315C521.958 307.781 521.341 309.561 520.109 310.657C518.876 311.753 517.027 312.3 514.561 312.3H502.782ZM492.031 290.18V339.077H502.782V319.971H513.534C516.228 319.971 518.168 320.564 519.355 321.751C520.542 322.938 521.318 324.81 521.684 327.367C521.958 329.33 522.163 331.384 522.3 333.53C522.437 335.676 522.802 337.525 523.396 339.077H534.148C533.645 338.393 533.257 337.571 532.983 336.612C532.755 335.608 532.573 334.558 532.436 333.462C532.344 332.366 532.276 331.293 532.23 330.243C532.184 329.193 532.139 328.28 532.093 327.504C532.002 326.271 531.819 325.038 531.545 323.806C531.317 322.573 530.929 321.454 530.381 320.45C529.833 319.4 529.126 318.51 528.258 317.779C527.391 317.003 526.295 316.432 524.971 316.067V315.93C527.71 314.834 529.673 313.236 530.86 311.136C532.093 309.036 532.71 306.548 532.71 303.672C532.71 301.8 532.367 300.065 531.682 298.467C531.043 296.823 530.084 295.385 528.806 294.152C527.573 292.92 526.067 291.961 524.286 291.276C522.551 290.546 520.588 290.18 518.397 290.18H492.031ZM541.453 290.18V339.077H578.571V330.038H552.205V318.053H575.9V309.698H552.205V299.22H578.023V290.18H541.453ZM618.458 306.616H628.868C628.548 303.786 627.772 301.275 626.539 299.083C625.307 296.892 623.732 295.066 621.814 293.605C619.942 292.098 617.796 290.957 615.377 290.18C613.003 289.404 610.469 289.016 607.775 289.016C604.031 289.016 600.653 289.678 597.64 291.002C594.672 292.326 592.161 294.152 590.106 296.481C588.052 298.809 586.477 301.549 585.381 304.699C584.285 307.803 583.738 311.182 583.738 314.834C583.738 318.395 584.285 321.728 585.381 324.833C586.477 327.892 588.052 330.563 590.106 332.845C592.161 335.128 594.672 336.932 597.64 338.256C600.653 339.534 604.031 340.173 607.775 340.173C610.788 340.173 613.551 339.717 616.062 338.803C618.573 337.89 620.764 336.566 622.636 334.831C624.508 333.097 626.014 330.996 627.156 328.531C628.297 326.066 629.005 323.303 629.279 320.245H618.869C618.458 323.532 617.317 326.18 615.445 328.189C613.619 330.197 611.062 331.202 607.775 331.202C605.355 331.202 603.301 330.745 601.612 329.832C599.922 328.873 598.553 327.618 597.503 326.066C596.453 324.513 595.676 322.778 595.174 320.861C594.718 318.898 594.489 316.889 594.489 314.834C594.489 312.689 594.718 310.611 595.174 308.602C595.676 306.594 596.453 304.813 597.503 303.261C598.553 301.663 599.922 300.407 601.612 299.494C603.301 298.535 605.355 298.056 607.775 298.056C609.099 298.056 610.355 298.284 611.542 298.741C612.774 299.152 613.87 299.745 614.829 300.521C615.788 301.298 616.587 302.211 617.226 303.261C617.865 304.265 618.276 305.384 618.458 306.616ZM645.25 314.834C645.25 312.689 645.478 310.611 645.935 308.602C646.437 306.594 647.213 304.813 648.263 303.261C649.313 301.663 650.683 300.407 652.372 299.494C654.061 298.535 656.116 298.056 658.536 298.056C660.955 298.056 663.01 298.535 664.699 299.494C666.388 300.407 667.758 301.663 668.808 303.261C669.858 304.813 670.611 306.594 671.068 308.602C671.57 310.611 671.821 312.689 671.821 314.834C671.821 316.889 671.57 318.898 671.068 320.861C670.611 322.778 669.858 324.513 668.808 326.066C667.758 327.618 666.388 328.873 664.699 329.832C663.01 330.745 660.955 331.202 658.536 331.202C656.116 331.202 654.061 330.745 652.372 329.832C650.683 328.873 649.313 327.618 648.263 326.066C647.213 324.513 646.437 322.778 645.935 320.861C645.478 318.898 645.25 316.889 645.25 314.834ZM634.498 314.834C634.498 318.395 635.046 321.728 636.142 324.833C637.237 327.892 638.812 330.563 640.867 332.845C642.921 335.128 645.432 336.932 648.4 338.256C651.413 339.534 654.792 340.173 658.536 340.173C662.325 340.173 665.703 339.534 668.671 338.256C671.639 336.932 674.15 335.128 676.204 332.845C678.259 330.563 679.834 327.892 680.93 324.833C682.025 321.728 682.573 318.395 682.573 314.834C682.573 311.182 682.025 307.803 680.93 304.699C679.834 301.549 678.259 298.809 676.204 296.481C674.15 294.152 671.639 292.326 668.671 291.002C665.703 289.678 662.325 289.016 658.536 289.016C654.792 289.016 651.413 289.678 648.4 291.002C645.432 292.326 642.921 294.152 640.867 296.481C638.812 298.809 637.237 301.549 636.142 304.699C635.046 307.803 634.498 311.182 634.498 314.834ZM689.923 290.18V339.077H699.99V304.767H700.127L712.111 339.077H720.398L732.382 304.425H732.519V339.077H742.586V290.18H727.452L716.631 323.806H716.494L705.058 290.18H689.923ZM752.053 290.18V339.077H762.12V304.767H762.257L774.241 339.077H782.528L794.512 304.425H794.649V339.077H804.716V290.18H789.581L778.761 323.806H778.624L767.187 290.18H752.053ZM814.182 290.18V339.077H851.3V330.038H824.934V318.053H848.629V309.698H824.934V299.22H850.752V290.18H814.182ZM858.589 290.18V339.077H868.656V306.342H868.793L889.133 339.077H899.885V290.18H889.818V322.984H889.681L869.273 290.18H858.589ZM920.102 330.038V299.22H927.772C930.42 299.22 932.634 299.608 934.415 300.384C936.241 301.115 937.702 302.188 938.798 303.603C939.893 305.018 940.67 306.731 941.126 308.739C941.628 310.703 941.879 312.917 941.879 315.382C941.879 318.076 941.537 320.359 940.852 322.231C940.167 324.102 939.254 325.632 938.113 326.819C936.971 327.96 935.67 328.782 934.209 329.284C932.748 329.787 931.242 330.038 929.689 330.038H920.102ZM909.35 290.18V339.077H930.443C934.186 339.077 937.428 338.461 940.167 337.228C942.952 335.95 945.258 334.215 947.084 332.024C948.956 329.832 950.348 327.23 951.262 324.217C952.175 321.203 952.631 317.916 952.631 314.355C952.631 310.292 952.061 306.753 950.919 303.74C949.823 300.727 948.271 298.216 946.262 296.207C944.299 294.198 941.948 292.691 939.209 291.687C936.515 290.683 933.593 290.18 930.443 290.18H909.35ZM960.11 290.18V339.077H997.228V330.038H970.862V318.053H994.557V309.698H970.862V299.22H996.68V290.18H960.11ZM1015.27 330.038V299.22H1022.94C1025.59 299.22 1027.8 299.608 1029.58 300.384C1031.41 301.115 1032.87 302.188 1033.97 303.603C1035.06 305.018 1035.84 306.731 1036.29 308.739C1036.8 310.703 1037.05 312.917 1037.05 315.382C1037.05 318.076 1036.7 320.359 1036.02 322.231C1035.33 324.102 1034.42 325.632 1033.28 326.819C1032.14 327.96 1030.84 328.782 1029.38 329.284C1027.92 329.787 1026.41 330.038 1024.86 330.038H1015.27ZM1004.52 290.18V339.077H1025.61C1029.35 339.077 1032.6 338.461 1035.33 337.228C1038.12 335.95 1040.43 334.215 1042.25 332.024C1044.12 329.832 1045.52 327.23 1046.43 324.217C1047.34 321.203 1047.8 317.916 1047.8 314.355C1047.8 310.292 1047.23 306.753 1046.09 303.74C1044.99 300.727 1043.44 298.216 1041.43 296.207C1039.47 294.198 1037.12 292.691 1034.38 291.687C1031.68 290.683 1028.76 290.18 1025.61 290.18H1004.52Z" fill="white"/>
<path fill-rule="evenodd" clip-rule="evenodd" d="M349.481 163.001L235.331 276.315L198.955 240.373L169 209.859L191.122 188.142L220.912 218.488L235.28 232.685L327.641 141L349.481 163.001Z" fill="white"/>
<path fill-rule="evenodd" clip-rule="evenodd" d="M1064.55 298C1064.55 301.535 1061.69 304.4 1058.15 304.4C1054.62 304.4 1051.75 301.535 1051.75 298C1051.75 294.465 1054.62 291.6 1058.15 291.6C1061.69 291.6 1064.55 294.465 1064.55 298ZM1066.15 298C1066.15 302.418 1062.57 306 1058.15 306C1053.73 306 1050.15 302.418 1050.15 298C1050.15 293.582 1053.73 290 1058.15 290C1062.57 290 1066.15 293.582 1066.15 298ZM1057.01 296.211V297.989H1058.53C1058.85 297.989 1059.09 297.918 1059.25 297.777C1059.41 297.635 1059.49 297.405 1059.49 297.087C1059.49 296.78 1059.41 296.559 1059.25 296.424C1059.09 296.282 1058.85 296.211 1058.53 296.211H1057.01ZM1055.62 301.447V295.132H1059.03C1059.31 295.132 1059.56 295.179 1059.79 295.274C1060.02 295.362 1060.21 295.486 1060.37 295.645C1060.54 295.804 1060.66 295.99 1060.74 296.202C1060.83 296.409 1060.88 296.633 1060.88 296.875C1060.88 297.246 1060.8 297.567 1060.64 297.839C1060.48 298.11 1060.23 298.316 1059.88 298.458V298.475C1060.05 298.523 1060.19 298.596 1060.3 298.696C1060.41 298.791 1060.5 298.906 1060.58 299.041C1060.65 299.171 1060.7 299.316 1060.73 299.475C1060.76 299.634 1060.78 299.793 1060.8 299.952C1060.8 300.053 1060.81 300.17 1060.81 300.306C1060.82 300.442 1060.83 300.58 1060.84 300.722C1060.86 300.863 1060.88 300.999 1060.91 301.129C1060.95 301.252 1061 301.358 1061.06 301.447H1059.67C1059.6 301.246 1059.55 301.008 1059.53 300.731C1059.51 300.453 1059.49 300.188 1059.45 299.935C1059.41 299.604 1059.31 299.363 1059.15 299.209C1059 299.056 1058.75 298.979 1058.4 298.979H1057.01V301.447H1055.62Z" fill="white"/>
</svg>
