<?xml version="1.0" encoding="UTF-8"?>
<svg width="960px" height="162px" viewBox="0 0 960 162" version="1.1" xmlns="http://www.w3.org/2000/svg" xmlns:xlink="http://www.w3.org/1999/xlink">
    <title>Group 37</title>
    <defs>
        <rect id="path-1" x="0" y="0" width="960" height="162"></rect>
        <linearGradient x1="50%" y1="0%" x2="50%" y2="100%" id="linearGradient-3">
            <stop stop-color="#F80000" offset="0%"></stop>
            <stop stop-color="#CA0000" offset="100%"></stop>
        </linearGradient>
        <polygon id="path-4" points="0 85.9714512 479.50021 132.949671 960 86.9262543 960 161.927035 0 162.926254"></polygon>
        <filter x="-1.6%" y="-19.5%" width="103.1%" height="139.0%" filterUnits="objectBoundingBox" id="filter-5">
            <feOffset dx="0" dy="0" in="SourceAlpha" result="shadowOffsetOuter1"></feOffset>
            <feGaussianBlur stdDeviation="5" in="shadowOffsetOuter1" result="shadowBlurOuter1"></feGaussianBlur>
            <feColorMatrix values="0 0 0 0 0   0 0 0 0 0   0 0 0 0 0  0 0 0 0.5 0" type="matrix" in="shadowBlurOuter1"></feColorMatrix>
        </filter>
        <path d="M98.4072887,19.8182385 L98.2227555,19.9989402 C94.2975453,23.8444174 88.4629379,24.988863 83.3763207,22.9111617 L83.3763207,22.9111617 L83.2507433,22.8598717 C76.2832021,20.013733 68.3214429,23.2880852 65.3720123,30.2126076 L65.3720123,30.2126076 L65.2707106,30.4500751 C63.1174566,35.5053397 58.1655412,38.7968483 52.6711615,38.8253246 L52.6711615,38.8253246 L52.5357277,38.8260547 C45.0092927,38.8649357 38.9080138,44.9385191 38.8348184,52.4644664 L38.8348184,52.4644664 L38.8322629,52.7227419 C38.779146,58.2171654 35.4648479,63.1539704 30.4001322,65.2842433 L30.4001322,65.2842433 L30.326392,65.3152729 C23.3685225,68.241546 20.062437,76.2234466 22.9136637,83.2127639 L22.9136637,83.2127639 L22.9364793,83.2687996 C25.0117913,88.3565524 23.864617,94.1908412 20.0175276,98.1140749 L20.0175276,98.1140749 L19.8233205,98.3119341 C14.5536276,103.685709 14.5737022,112.294588 19.8683971,117.643718 L19.8683971,117.643718 L19.907275,117.683327 C23.794152,121.610391 24.9579318,127.480089 22.8634509,132.593032 L22.8634509,132.593032 L22.8349769,132.662209 C19.9819197,139.626888 23.2482089,147.592176 30.1693885,150.548743 L30.1693885,150.548743 L30.406854,150.650228 C35.4598864,152.808606 38.746437,157.764027 38.7692506,163.25845 L38.7692506,163.25845 L38.7696156,163.393885 C38.8010072,170.92038 44.8681493,177.027726 52.3942192,177.108583 L52.3942192,177.108583 L52.6524926,177.111503 C58.1466897,177.170457 63.0801676,180.489706 65.2051265,185.556651 L65.2051265,185.556651 L65.2575112,185.681682 C68.1682412,192.622447 76.1117455,195.941147 83.0951684,193.133882 L83.0951684,193.133882 L83.3346418,193.037508 C88.4327596,190.988277 94.2611603,192.165208 98.1646471,196.032403 L98.1646471,196.032403 L98.2608379,196.127864 C103.607553,201.424974 112.216181,201.448882 117.592468,196.181702 L117.592468,196.181702 L117.776819,196.000818 C121.701664,192.155706 127.536637,191.011078 132.623254,193.088779 L132.623254,193.088779 L132.748466,193.140069 C139.716007,195.986025 147.677767,192.711673 150.627562,185.787516 L150.627562,185.787516 L150.708604,185.596775 C152.871897,180.517782 157.859039,177.221345 163.37952,177.221343 L163.37952,177.221343 L163.392662,177.221343 C170.947023,177.22134 177.091378,171.136075 177.164574,163.582019 L177.164574,163.582019 L177.167494,163.277747 C177.220611,157.783141 180.534727,152.845788 185.59999,150.715515 L185.59999,150.715515 L185.673,150.684851 C192.630869,147.758212 195.936955,139.776494 193.085911,132.787177 L193.085911,132.787177 C190.998735,127.671133 192.17128,121.803076 196.064183,117.88185 L196.064183,117.88185 L196.116933,117.828918 C201.419481,112.48745 201.452156,103.878753 196.190498,98.4973159 L196.190498,98.4973159 L196.009981,98.3124162 C192.168735,94.3837096 191.030144,88.5475964 193.112943,83.462945 L193.112943,83.462945 L193.164415,83.3377315 C196.017655,76.3730533 192.751366,68.407765 185.830004,65.4511976 L185.830004,65.4511976 L185.592356,65.3498953 C180.539688,63.1913346 177.253138,58.2359142 177.230324,52.7414908 L177.230324,52.7414908 L177.229776,52.6058733 C177.198567,45.079561 171.131425,38.9722147 163.605538,38.8913581 L163.605538,38.8913581 L163.347082,38.8886203 C157.852702,38.8296661 152.919407,35.5102346 150.794266,30.4432899 L150.794266,30.4432899 L150.742063,30.3184415 C147.830968,23.3776764 139.887647,20.0589761 132.904589,22.8658766 L132.904589,22.8658766 L132.66475,22.9622509 C127.566632,25.0116643 121.738049,23.8345508 117.834927,19.9675383 L117.834927,19.9675383 L117.738737,19.8722593 C115.055614,17.2139392 111.550579,15.8840528 108.045362,15.8840528 L108.045362,15.8840528 C104.565515,15.8840528 101.085302,17.1942315 98.4072887,19.8182385" id="path-6"></path>
        <filter x="-8.1%" y="-8.1%" width="116.3%" height="116.3%" filterUnits="objectBoundingBox" id="filter-7">
            <feOffset dx="0" dy="0" in="SourceAlpha" result="shadowOffsetOuter1"></feOffset>
            <feGaussianBlur stdDeviation="5" in="shadowOffsetOuter1" result="shadowBlurOuter1"></feGaussianBlur>
            <feColorMatrix values="0 0 0 0 0   0 0 0 0 0   0 0 0 0 0  0 0 0 0.5 0" type="matrix" in="shadowBlurOuter1"></feColorMatrix>
        </filter>
        <path d="M98.4072887,19.8182385 L98.2227555,19.9989402 C94.2975453,23.8444174 88.4629379,24.988863 83.3763207,22.9111617 L83.3763207,22.9111617 L83.2507433,22.8598717 C76.2832021,20.013733 68.3214429,23.2880852 65.3720123,30.2126076 L65.3720123,30.2126076 L65.2707106,30.4500751 C63.1174566,35.5053397 58.1655412,38.7968483 52.6711615,38.8253246 L52.6711615,38.8253246 L52.5357277,38.8260547 C45.0092927,38.8649357 38.9080138,44.9385191 38.8348184,52.4644664 L38.8348184,52.4644664 L38.8322629,52.7227419 C38.779146,58.2171654 35.4648479,63.1539704 30.4001322,65.2842433 L30.4001322,65.2842433 L30.326392,65.3152729 C23.3685225,68.241546 20.062437,76.2234466 22.9136637,83.2127639 L22.9136637,83.2127639 L22.9364793,83.2687996 C25.0117913,88.3565524 23.864617,94.1908412 20.0175276,98.1140749 L20.0175276,98.1140749 L19.8233205,98.3119341 C14.5536276,103.685709 14.5737022,112.294588 19.8683971,117.643718 L19.8683971,117.643718 L19.907275,117.683327 C23.794152,121.610391 24.9579318,127.480089 22.8634509,132.593032 L22.8634509,132.593032 L22.8349769,132.662209 C19.9819197,139.626888 23.2482089,147.592176 30.1693885,150.548743 L30.1693885,150.548743 L30.406854,150.650228 C35.4598864,152.808606 38.746437,157.764027 38.7692506,163.25845 L38.7692506,163.25845 L38.7696156,163.393885 C38.8010072,170.92038 44.8681493,177.027726 52.3942192,177.108583 L52.3942192,177.108583 L52.6524926,177.111503 C58.1466897,177.170457 63.0801676,180.489706 65.2051265,185.556651 L65.2051265,185.556651 L65.2575112,185.681682 C68.1682412,192.622447 76.1117455,195.941147 83.0951684,193.133882 L83.0951684,193.133882 L83.3346418,193.037508 C88.4327596,190.988277 94.2611603,192.165208 98.1646471,196.032403 L98.1646471,196.032403 L98.2608379,196.127864 C103.607553,201.424974 112.216181,201.448882 117.592468,196.181702 L117.592468,196.181702 L117.776819,196.000818 C121.701664,192.155706 127.536637,191.011078 132.623254,193.088779 L132.623254,193.088779 L132.748466,193.140069 C139.716007,195.986025 147.677767,192.711673 150.627562,185.787516 L150.627562,185.787516 L150.708604,185.596775 C152.871897,180.517782 157.859039,177.221345 163.37952,177.221343 L163.37952,177.221343 L163.392662,177.221343 C170.947023,177.22134 177.091378,171.136075 177.164574,163.582019 L177.164574,163.582019 L177.167494,163.277747 C177.220611,157.783141 180.534727,152.845788 185.59999,150.715515 L185.59999,150.715515 L185.673,150.684851 C192.630869,147.758212 195.936955,139.776494 193.085911,132.787177 L193.085911,132.787177 C190.998735,127.671133 192.17128,121.803076 196.064183,117.88185 L196.064183,117.88185 L196.116933,117.828918 C201.419481,112.48745 201.452156,103.878753 196.190498,98.4973159 L196.190498,98.4973159 L196.009981,98.3124162 C192.168735,94.3837096 191.030144,88.5475964 193.112943,83.462945 L193.112943,83.462945 L193.164415,83.3377315 C196.017655,76.3730533 192.751366,68.407765 185.830004,65.4511976 L185.830004,65.4511976 L185.592356,65.3498953 C180.539688,63.1913346 177.253138,58.2359142 177.230324,52.7414908 L177.230324,52.7414908 L177.229776,52.6058733 C177.198567,45.079561 171.131425,38.9722147 163.605538,38.8913581 L163.605538,38.8913581 L163.347082,38.8886203 C157.852702,38.8296661 152.919407,35.5102346 150.794266,30.4432899 L150.794266,30.4432899 L150.742063,30.3184415 C147.830968,23.3776764 139.887647,20.0589761 132.904589,22.8658766 L132.904589,22.8658766 L132.66475,22.9622509 C127.566632,25.0116643 121.738049,23.8345508 117.834927,19.9675383 L117.834927,19.9675383 L117.738737,19.8722593 C115.055614,17.2139392 111.550579,15.8840528 108.045362,15.8840528 L108.045362,15.8840528 C104.565515,15.8840528 101.085302,17.1942315 98.4072887,19.8182385" id="path-8"></path>
        <filter x="-8.1%" y="-8.1%" width="116.3%" height="116.3%" filterUnits="objectBoundingBox" id="filter-9">
            <feOffset dx="0" dy="0" in="SourceAlpha" result="shadowOffsetOuter1"></feOffset>
            <feGaussianBlur stdDeviation="5" in="shadowOffsetOuter1" result="shadowBlurOuter1"></feGaussianBlur>
            <feColorMatrix values="0 0 0 0 0   0 0 0 0 0   0 0 0 0 0  0 0 0 0.5 0" type="matrix" in="shadowBlurOuter1"></feColorMatrix>
        </filter>
        <ellipse id="path-10" cx="107.999864" cy="108.00066" rx="74.2867758" ry="74.286923"></ellipse>
        <filter x="-4.4%" y="-3.7%" width="108.7%" height="108.7%" filterUnits="objectBoundingBox" id="filter-11">
            <feOffset dx="0" dy="1" in="SourceAlpha" result="shadowOffsetOuter1"></feOffset>
            <feGaussianBlur stdDeviation="2" in="shadowOffsetOuter1" result="shadowBlurOuter1"></feGaussianBlur>
            <feColorMatrix values="0 0 0 0 0   0 0 0 0 0   0 0 0 0 0  0 0 0 0.5 0" type="matrix" in="shadowBlurOuter1"></feColorMatrix>
        </filter>
    </defs>
    <g id="FInal" stroke="none" stroke-width="1" fill="none" fill-rule="evenodd">
        <g id="(D)-BMO-memorial-day-sale-banner-v6" transform="translate(0.000000, -410.000000)">
            <g id="Bitmap" transform="translate(0.000000, 74.000000)">
                <g id="Group-37" transform="translate(0.000000, 336.000000)">
                    <mask id="mask-2" fill="white">
                        <use xlink:href="#path-1"></use>
                    </mask>
                    <g id="Rectangle"></g>
                    <g id="Rectangle" mask="url(#mask-2)">
                        <use fill="black" fill-opacity="1" filter="url(#filter-5)" xlink:href="#path-4"></use>
                        <use fill="url(#linearGradient-3)" fill-rule="evenodd" xlink:href="#path-4"></use>
                    </g>
                    <g id="Group-35" mask="url(#mask-2)">
                        <g transform="translate(372.000210, 7.999723)" id="Group-38">
                            <g id="Fill-1" transform="translate(107.999784, 108.000249) rotate(-11.000000) translate(-107.999784, -108.000249) ">
                                <use fill="black" fill-opacity="1" filter="url(#filter-7)" xlink:href="#path-6"></use>
                                <use fill="#DA0000" fill-rule="evenodd" xlink:href="#path-6"></use>
                            </g>
                            <g id="Fill-1">
                                <use fill="black" fill-opacity="1" filter="url(#filter-9)" xlink:href="#path-8"></use>
                                <use fill="#DA0000" fill-rule="evenodd" xlink:href="#path-8"></use>
                            </g>
                            <g id="Group-51" transform="translate(22.750936, 24.173249)" fill="#FFFFFF">
                                <polygon id="Fill-1" points="11.435961 47.708085 11.8742945 50.0505442 14.198567 50.3503789 12.1505551 51.4710114 12.5888886 53.7984788 10.8834398 52.1568835 8.83174443 53.3037515 9.82628259 51.1711766 8.11346687 49.5670606 10.4377394 49.8668954"></polygon>
                                <polygon id="Fill-2" points="16.7947004 38.5724943 16.9456018 40.9149534 19.2694838 41.4978015 17.0436877 42.3351846 17.1983617 44.6628881 15.6704847 42.8479433 13.4409161 43.7111488 14.7198057 41.7523365 13.1843837 39.9705919 15.5082657 40.55344"></polygon>
                                <polygon id="Fill-3" points="23.2694532 30.4519692 23.1180826 32.7907394 25.354584 33.6576337 23.0348287 34.2146595 22.8872424 36.542363 21.6005918 34.5577283 19.2694838 35.1368875 20.7983274 33.351454 19.4965398 31.3963306 21.7330411 32.2595361"></polygon>
                                <polygon id="Fill-4" points="29.8194568 23.3465097 29.3792581 25.6875282 31.4396841 26.8336909 29.1203177 27.1071219 28.6838181 29.4369035 27.6850478 27.2756752 25.354584 27.5715799 27.0561925 25.9647048 26.0426257 23.8296959 28.1067508 24.9796042"></polygon>
                                <polygon id="Fill-5" points="38.3853406 17.2561159 37.665558 19.5932174 39.553151 21.0442325 37.235892 21.0210162 36.5197818 23.3465097 35.8036716 21.0016694 33.4680508 21.0016694 35.3446267 19.5738706 34.6064824 17.2561159 36.4977476 18.7032615"></polygon>
                                <polygon id="Fill-6" points="47.9659964 11.6483147 46.9623067 13.7994058 48.6808012 15.4304941 46.3623151 15.1125067 45.3660327 17.2561159 44.9327054 14.9142322 42.595701 14.6112089 44.6438206 13.4851595 44.1845677 11.165722 45.9030622 12.7968103"></polygon>
                                <polygon id="Fill-7" points="56.5511679 8.04753851 55.2559001 10.0236965 56.7942681 11.8268947 54.4772199 11.2270553 53.1933474 13.1958533 53.0490067 10.8553757 50.7091679 10.2702563 52.9350535 9.42753712 52.7641237 7.10545947 54.3062902 8.90865764"></polygon>
                                <polygon id="Fill-8" points="66.9361016 5.45413892 65.3967728 7.2562482 66.6928497 9.23121287 64.4655738 8.35590265 62.9376473 10.1506564 63.0934806 7.81159209 60.8510015 6.95099296 63.1694969 6.38093798 63.2987245 4.06026255 64.5948014 6.03522722"></polygon>
                                <polygon id="Fill-9" points="72.2990834 3.3377051 69.9786517 3.62523442 72.0466205 4.76788342 71.5973849 7.10545947 73.3052226 5.48483965 75.3509152 6.63869109 74.3447761 4.49155654 76.0637519 2.86720257 73.721044 3.16220019 72.7186175 1.01506564"></polygon>
                                <polygon id="Fill-10" points="84.1551179 0 83.4515742 2.2723043 81.1346687 2.26457537 83.0242912 3.70988457 82.2949632 6.05561366 84.1772187 4.62189786 86.0484239 6.09039383 85.3264628 3.7794449 87.2197688 2.39596712 84.8770789 2.39596712"></polygon>
                                <polygon id="Fill-11" points="94.6074046 3.15322225 92.2906856 2.85149632 94.0096614 4.47560134 92.9998095 6.61748296 95.0566402 5.48135445 96.7459145 7.10545947 96.3041043 4.78105228 98.3757858 3.63747375 96.0330779 3.33947283 95.5912677 1.01506564"></polygon>
                                <polygon id="Fill-12" points="103.733568 5.01054977 101.418336 4.43121068 102.956747 6.22422849 101.650621 8.19324805 103.889694 7.33890623 105.401449 9.13559075 105.256747 6.80723428 107.503436 5.95289246 105.15774 5.36988667 105.005422 3.04519692"></polygon>
                                <polygon id="Fill-13" points="116.631086 9.27484163 114.291247 9.85383214 114.13931 12.1807877 112.874429 10.2129528 110.545986 10.7956078 112.095749 9.00000436 110.800482 7.03216953 113.022569 7.8896618 114.534348 6.09039383 114.38241 8.41734936"></polygon>
                                <polygon id="Fill-14" points="125.758736 13.6165223 123.416603 13.9143411 122.9756 16.2410502 121.99724 14.1004778 119.673636 14.4020193 121.400589 12.7826298 120.399994 10.6420574 122.438243 11.7774914 124.135549 10.1506564 123.69084 12.4773655"></polygon>
                                <polygon id="Fill-15" points="134.886387 20.0105621 132.54653 20.0105621 131.825441 22.331444 131.130107 20.0105621 128.801287 20.0144046 130.695982 18.5811448 129.978573 16.2564203 131.847516 17.6858376 133.720137 16.2410502 132.991691 18.5696172"></polygon>
                                <polygon id="Fill-16" points="142.999854 25.553499 140.661426 25.254584 139.657125 27.4067722 139.238357 25.0827078 136.914753 24.7912657 138.986356 23.6479157 138.549059 21.3163784 140.242658 22.9305196 142.284613 21.7759603 141.280312 23.9244121"></polygon>
                                <polygon id="Fill-17" points="150.099137 33.1166699 147.762216 32.5348789 146.468563 34.5122317 146.343371 32.1887501 144.014037 31.6143236 146.263703 30.7563661 146.115749 28.4218379 147.63323 30.2113974 149.85634 29.3350287 148.562687 31.3123815"></polygon>
                                <polygon id="Fill-18" points="154.927105 40.6744723 152.683628 39.8123113 151.14622 41.6176912 151.317043 39.2964884 149.084954 38.4416963 151.427129 37.8632379 151.578972 35.5272973 152.854451 37.4911085 155.170054 36.8905434 153.632645 38.6959233"></polygon>
                                <polygon id="Fill-19" points="160.544485 51.2851613 158.479105 50.1389987 156.765357 51.7683476 157.22433 49.4498028 155.170054 48.3111314 157.513039 48.0152266 157.953506 45.6779537 158.938078 47.8167083 161.255154 47.4983297 159.541406 49.1314243"></polygon>
                                <polygon id="Fill-20" points="164.144781 61.9190039 162.258327 60.4700171 160.371872 61.9190039 161.105901 59.5983004 159.226787 58.1648108 161.56467 58.1686851 162.287688 55.8286101 162.996026 58.1493136 165.311887 58.1260678 163.425433 59.578929"></polygon>
                                <polygon id="Fill-21" points="164.605779 66.1068533 162.269337 65.7991439 163.977306 67.4239995 162.960658 69.5592022 165.023529 68.410921 166.738891 70.039529 166.295263 67.6979359 168.354437 66.545902 166.03648 66.2719656 165.60764 63.9491352"></polygon>
                                <polygon id="Fill-22" points="166.632596 77.0957135 164.297704 76.5044131 165.826548 78.3041836 164.52476 80.2628661 166.765046 79.3980893 168.297673 81.2052511 168.146303 78.8622233 170.382804 77.9974466 168.063049 77.4357112 167.923031 75.1148572"></polygon>
                                <polygon id="Fill-23" points="166.785347 86.0565138 164.554396 85.1848747 165.834079 87.1571429 164.297704 88.9410484 166.626803 88.3574934 167.91026 90.3408418 168.061255 87.999235 170.382804 87.4119866 168.163177 86.5735879 168.317947 84.250448"></polygon>
                                <polygon id="Fill-24" points="166.04981 97.049537 163.998115 95.8930381 164.992653 98.0408219 163.283521 99.6479048 165.60411 99.3475155 166.598648 101.506564 167.040665 99.163527 169.368621 98.8631377 167.316925 97.7404325 167.758942 95.41617"></polygon>
                                <polygon id="Fill-25" points="163.281693 110.642155 162.565369 108.387143 160.240971 108.387143 162.123149 106.8925 161.40317 104.589034 163.281693 105.95695 165.163871 104.551761 164.443893 106.899954 166.326071 108.387143 164.001672 108.387143"></polygon>
                                <polygon id="Fill-26" points="158.946843 120.792811 158.50851 118.450352 156.184237 118.154265 158.235933 117.029885 157.797599 114.702417 159.499364 116.344013 161.554743 115.197145 160.556522 117.325971 162.269337 118.933835 159.945065 118.637749"></polygon>
                                <polygon id="Fill-27" points="153.588104 130.943467 153.437202 128.601008 151.11332 128.01816 153.339116 127.180777 153.184443 124.853074 154.712319 126.668018 156.941888 125.804813 155.662998 127.763625 157.198421 129.54537 154.874539 128.962522"></polygon>
                                <polygon id="Fill-43" points="15.4555474 127.826424 17.6976261 128.688585 19.2378696 126.883205 19.0633593 129.204408 21.2978505 130.055515 18.9533419 130.637658 18.8015937 132.973599 17.5269094 131.009787 15.2127504 131.610353 16.7492002 129.804973"></polygon>
                                <polygon id="Fill-44" points="9.84202025 118.231098 11.9036996 119.381714 13.6211488 117.747614 13.1584739 120.067586 15.2127504 121.206958 12.8734661 121.499297 12.4292982 123.838008 11.4447261 121.701685 9.12765022 122.02026 10.8450994 120.38616"></polygon>
                                <polygon id="Fill-45" points="6.23802285 107.596958 8.12814745 109.04207 10.0146019 107.596958 9.27690278 109.917661 11.1560169 111.355025 8.82180482 111.347277 8.09511614 113.687351 7.39044833 111.366648 5.07091679 111.389894 6.95737124 109.937033"></polygon>
                                <polygon id="Fill-46" points="4.08629069 100.805268 2.02836672 101.952843 4.34491668 102.234111 4.77719156 104.551761 5.77844362 102.399122 8.11346687 102.702891 6.40653531 101.082786 7.41887134 98.9451482 5.36094737 100.096473 3.6466265 98.4613669"></polygon>
                                <polygon id="Fill-47" points="2.23511137 89.6409451 0 90.5051975 2.3220954 91.0628988 2.45824431 93.3860387 3.75165901 91.4100771 6.08510015 91.9936321 4.55342485 90.1986464 5.85440338 88.2411518 3.6155101 89.1054041 2.08383479 87.2956449"></polygon>
                                <polygon id="Fill-48" points="2.32388202 80.5067775 0 81.086991 2.22579609 81.929594 2.06734959 84.250448 3.59522656 82.4432862 5.83234026 83.3154543 4.54590557 81.3456849 6.08510015 79.5570013 3.76121813 80.144606 2.47478345 78.1600542"></polygon>
                                <polygon id="Fill-49" points="3.33845587 69.3434304 1.01418336 69.6398821 3.06219527 70.7656481 2.62386179 73.084726 4.32931056 71.4523653 6.38100595 72.6081517 5.38646779 70.4654438 7.09928351 68.8593511 4.77501099 69.1595553 3.77678936 66.9943321"></polygon>
                                <polygon id="Fill-50" points="7.09928351 57.8587414 7.81883016 60.228972 10.1418336 60.228972 8.26078522 61.6142226 8.98033187 63.9491352 7.09928351 62.4579305 5.21823514 63.9138172 5.9377818 61.6181469 4.05673343 60.228972 6.38338937 60.228972"></polygon>
                            </g>
                            <g id="Oval">
                                <use fill="black" fill-opacity="1" filter="url(#filter-11)" xlink:href="#path-10"></use>
                                <use fill="#FFFFFF" fill-rule="evenodd" xlink:href="#path-10"></use>
                            </g>
                        </g>
                    </g>
                </g>
            </g>
        </g>
    </g>
</svg>