<?xml version="1.0" encoding="UTF-8"?>
<svg width="14px" height="8px" viewBox="0 0 14 8" version="1.1" xmlns="http://www.w3.org/2000/svg" xmlns:xlink="http://www.w3.org/1999/xlink">
    <title>0778BE7F-9A89-4347-809E-0B8AB0E7E33D</title>
    <g id="Mobile" stroke="none" stroke-width="1" fill="none" fill-rule="evenodd">
        <g id="BMO---Mobile-NEW-5.2" transform="translate(-243.000000, -4368.000000)" fill="#FFFFFF" fill-rule="nonzero">
            <g id="Group-34-Copy" transform="translate(102.000000, 4356.000000)">
                <g id="Group-33" transform="translate(15.000000, 6.000000)">
                    <g id="Less-Info-Icon" transform="translate(133.000000, 10.000000) rotate(-270.000000) translate(-133.000000, -10.000000) translate(129.000000, 3.000000)">
                        <path d="M0,6.99925891 C0,7.13413795 0.0250703505,7.25979449 0.0752110514,7.37622854 C0.125351752,7.49266258 0.203427987,7.60325022 0.309439754,7.70799146 L6.43487337,13.7328357 C6.61185981,13.9109452 6.82580711,14 7.07671527,14 C7.24854438,14 7.40353031,13.9591987 7.54167306,13.877596 C7.67981581,13.7959934 7.79073932,13.686188 7.87444359,13.5481799 C7.95814786,13.4101718 8,13.2552832 8,13.0835142 C8,12.8324481 7.90528524,12.6104494 7.71585572,12.417518 L2.19346124,6.99777672 L7.71585572,1.58099977 C7.90528524,1.3899623 8,1.16845764 8,0.916485805 C8,0.744716767 7.95814786,0.589828196 7.87444359,0.451820091 C7.79073932,0.313811986 7.67981581,0.204006611 7.54167306,0.122403967 C7.40353031,0.0408013222 7.24854438,0 7.07671527,0 C6.82580711,0 6.61185981,0.0868726436 6.43487337,0.260617931 L0.309439754,6.29052635 C0.204410335,6.39526759 0.126825275,6.5056082 0.0766845741,6.62154818 C0.0265438731,6.73748816 0.000982348427,6.86339174 0,6.99925891 Z" id="Path"></path>
                    </g>
                </g>
            </g>
        </g>
    </g>
</svg>