<?xml version="1.0" encoding="UTF-8"?>
<svg width="13px" height="10px" viewBox="0 0 13 10" version="1.1" xmlns="http://www.w3.org/2000/svg" xmlns:xlink="http://www.w3.org/1999/xlink">
    <title>B67A4BF2-68DE-47AE-9671-05DDAA5E9EAE</title>
    <g id="Desktop" stroke="none" stroke-width="1" fill="none" fill-rule="evenodd">
        <g id="BMO---Desktop-NEW-6" transform="translate(-852.000000, -999.000000)" fill="#E17D22" fill-rule="nonzero">
            <g id="Group" transform="translate(360.000000, 652.000000)">
                <g id="Group-36-Copy" transform="translate(492.000000, 341.000000)">
                    <g id="Check" transform="translate(0.000000, 6.000000)">
                        <path d="M4.78648549,9.8073518 C4.66684102,9.93069813 4.50452238,10 4.33526545,10 C4.16600852,10 4.00368988,9.93069813 3.88404541,9.8073518 L0.280478448,6.09406222 C0.100897274,5.90916087 0,5.65831007 0,5.39673673 C0,5.13516338 0.100897274,4.88431259 0.280478448,4.69941124 L0.731698488,4.23440703 C0.911188462,4.04938653 1.15468461,3.94543508 1.40858715,3.94543508 C1.66248969,3.94543508 1.90598584,4.04938653 2.08547581,4.23440703 L4.33526545,6.55244494 L10.4145245,0.288972818 C10.5940141,0.103951805 10.8375103,0 11.091413,0 C11.3453157,0 11.5888119,0.103951805 11.7683015,0.288972818 L12.2195216,0.753977028 C12.3991027,0.938878379 12.5,1.18972917 12.5,1.45130252 C12.5,1.71287586 12.3991027,1.96372666 12.2195216,2.14862801 L4.78648549,9.8073518 Z" id="Path"></path>
                    </g>
                </g>
            </g>
        </g>
    </g>
</svg>