<svg width="38" height="38" viewBox="0 0 38 38" fill="none" xmlns="http://www.w3.org/2000/svg">
<g id="Icon">
<path id="Path (Stroke)" fill-rule="evenodd" clip-rule="evenodd" d="M7.33314 11.3124C6.75305 11.3124 6.1998 11.807 6.1998 12.5206V31.2659C6.1998 31.9796 6.75305 32.4742 7.33314 32.4742H25.6665C26.2466 32.4742 26.7998 31.9796 26.7998 31.2659V21.0412C26.7998 19.8262 27.7848 18.8412 28.9998 18.8412C30.2148 18.8412 31.1998 19.8262 31.1998 21.0412V31.2659C31.1998 34.3169 28.7683 36.8742 25.6665 36.8742H7.33314C4.23133 36.8742 1.7998 34.3169 1.7998 31.2659V12.5206C1.7998 9.46959 4.23133 6.91235 7.33314 6.91235H17.3331C18.5482 6.91235 19.5331 7.89733 19.5331 9.11235C19.5331 10.3274 18.5482 11.3124 17.3331 11.3124H7.33314Z" fill="#0F1111"/>
<path id="Path" fill-rule="evenodd" clip-rule="evenodd" d="M15.666 22.7453L33.9993 4Z" fill="#0F1111"/>
<g id="Vector">
<path fill-rule="evenodd" clip-rule="evenodd" d="M21.8001 4.00005C21.8001 2.78502 22.7851 1.80005 24.0001 1.80005H34.0001C35.2152 1.80005 36.2001 2.78502 36.2001 4.00005V14.2248C36.2001 15.4398 35.2152 16.4248 34.0001 16.4248C32.7851 16.4248 31.8001 15.4398 31.8001 14.2248V6.20005H24.0001C22.7851 6.20005 21.8001 5.21508 21.8001 4.00005Z" fill="#0F1111"/>
<path fill-rule="evenodd" clip-rule="evenodd" d="M35.5384 2.42723C36.407 3.27678 36.4225 4.66966 35.573 5.53831L17.2396 24.2836C16.3901 25.1523 14.9972 25.1677 14.1285 24.3182C13.2599 23.4686 13.2444 22.0758 14.094 21.2071L32.4273 2.46179C33.2769 1.59315 34.6697 1.57767 35.5384 2.42723Z" fill="#0F1111"/>
</g>
</g>
</svg>
