<?xml version="1.0" encoding="UTF-8"?>
<svg width="15px" height="15px" viewBox="0 0 15 15" version="1.1" xmlns="http://www.w3.org/2000/svg" xmlns:xlink="http://www.w3.org/1999/xlink">
    <title>3843EEFF-70C5-4125-89F0-CFA051D0DF64</title>
    <g id="Desktop" stroke="none" stroke-width="1" fill="none" fill-rule="evenodd">
        <g id="BMO---Desktop-NEW-6" transform="translate(-837.000000, -9195.000000)" fill="#F12323" fill-rule="nonzero">
            <g id="Group-35" transform="translate(360.000000, 6399.000000)">
                <g id="Group-25" transform="translate(477.000000, 2785.000000)">
                    <path d="M2.11096174,11.2595031 L2.25940603,11.3876528 L7.5,16.628 L12.740594,11.3876528 C13.2574644,10.8707824 14.0954768,10.8707824 14.6123472,11.3876528 C15.0822294,11.857535 15.1249459,12.5928238 14.7404969,13.1109617 L14.6123472,13.259406 L9.372,18.5 L14.6123472,23.740594 C15.1292176,24.2574644 15.1292176,25.0954768 14.6123472,25.6123472 C14.142465,26.0822294 13.4071762,26.1249459 12.8890383,25.7404969 L12.740594,25.6123472 L7.5,20.372 L2.25940603,25.6123472 C1.74253565,26.1292176 0.904523176,26.1292176 0.38765279,25.6123472 C-0.0822293796,25.142465 -0.12494594,24.4071762 0.259503107,23.8890383 L0.38765279,23.740594 L5.628,18.5 L0.38765279,13.259406 C-0.129217597,12.7425356 -0.129217597,11.9045232 0.38765279,11.3876528 C0.857534959,10.9177706 1.59282381,10.8750541 2.11096174,11.2595031 Z" id="Combined-Shape"></path>
                </g>
            </g>
        </g>
    </g>
</svg>